<svg xmlns="http://www.w3.org/2000/svg" width="100" height="100" viewBox="0 0 24 24" fill="none" stroke="#000" stroke-width="1" stroke-linecap="round" stroke-linejoin="round">
  <path
     style="font-style:italic;font-variant:normal;font-weight:normal;font-stretch:normal;font-size:20.48px;font-family:'Times New Roman';-inkscape-font-specification:'Times New Roman, Italic';fill:#FF2D00;fill-opacity:1;stroke:none;stroke-width:0.24"
     d="m 10.345,6.1150007 -0.78,2.72 h 1.57 l -0.17,0.6299999 H 9.405 L 7.685,15.365001 Q 7.405,16.315 7.405,16.595 q 0,0.17 0.08,0.26 0.08,0.09 0.19,0.09 0.25,0 0.66,-0.35 0.24,-0.2 1.07,-1.229999 l 0.33,0.25 Q 8.815,16.955 7.995,17.505 q -0.56,0.38 -1.1299999,0.38 -0.44,0 -0.72,-0.27 -0.28,-0.28 -0.28,-0.71 0,-0.54 0.32,-1.649999 L 7.855,9.4650006 H 6.3450001 l 0.1,-0.39 Q 7.545,8.7750007 8.275,8.1850007 q 0.73,-0.6 1.63,-2.07 z">
	<animateTransform attributeName="transform" 
	type="scale"
	additive="sum"    
	from="0 0"
	to="1 1"      
	beg="0s"
	dur="1s"
	repeatCount="indefinite" />
  </path>
  <polygon
     points="23 7 16 12 23 17 23 7"
     id="polygon2" />
  <rect
     x="1"
     y="5"
     width="15"
     height="14"
     rx="2"
     ry="2"
     id="rect4" />
</svg>
